<svg viewBox="0 0 56 16" fill="none" xmlns="http://www.w3.org/2000/svg"><path fill-rule="evenodd" clip-rule="evenodd" d="M16.0716 0C17.111 0 17.7697 0.734004 17.5824 1.65153L17.5516 1.77773L16.4646 5.68023C16.2499 6.48564 15.6763 7.15995 14.9845 7.52983L14.8228 7.6097L11.6546 9.08403L12.3485 11.8374C12.4102 12.0494 12.6179 12.227 12.8583 12.2638L12.9497 12.2708H15.0308L14.0135 16H10.7299C9.96799 16 9.22678 15.4621 8.98803 14.8024L8.94926 14.6774L7.95482 10.8185L5.17986 12.1191L4.11629 16H0L4.34743 0H16.0716ZM30.028 0L30.0255 0.00849999L29.0084 3.71374L29.0048 3.72704H29.0004L22.8229 3.71374C22.4538 3.71374 22.1768 3.84407 22.0843 4.19052C22.0024 4.49868 22.1027 4.73832 22.3854 4.94011L22.4999 5.01406L29.1008 9.10927C29.7285 9.49516 30.0921 10.3574 29.9828 11.0527L29.9546 11.1894L29.0084 14.6781C28.8348 15.3511 28.0883 15.9282 27.3084 15.9938L27.1619 16H18.8519L19.8686 12.2728H24.8772C25.2464 12.2728 25.5232 12.0346 25.5925 11.8178C25.6756 11.5644 25.6278 11.3636 25.3483 11.1522L25.2464 11.0812L18.5995 6.92095C17.9719 6.53476 17.6081 5.67281 17.7173 4.97743L17.7455 4.84076L18.6914 1.33023C18.8654 0.657352 19.5912 0.0802618 20.3495 0.0146972L20.492 0.00849999L30.0218 0H30.028ZM34.8758 0L39.0028 0.00849999L34.6207 16H30.4473L34.8566 0.00849999H34.8735L34.8758 0ZM17.698 12.2956L16.6916 16H16.0205L17.0206 12.2956H17.698ZM16.356 12.2956L15.313 16H14.5946L15.6471 12.3028L15.6493 12.2956H16.356ZM19.124 12.2956L18.0887 16H17.3625L18.398 12.2956H19.124ZM12.2017 3.70443H7.46927L6.45853 7.48768L12.0409 4.81988C12.5006 4.60106 12.6614 4.33872 12.7304 4.12006C12.8222 3.83596 12.5694 3.70443 12.2017 3.70443ZM34.1379 0L33.1305 3.70443H32.4604L33.474 0H34.1379ZM32.712 0L31.7062 3.70443H31.0345L32.0511 0H32.712ZM31.3537 0L31.3515 0.00844828H31.37L30.3313 3.69121L30.3277 3.70443H29.6086L29.6121 3.69121L30.6322 0.00844828L30.6346 0H31.3537Z" fill="currentColor"></path><path fill-rule="evenodd" clip-rule="evenodd" d="M44.0993 0.5C45.1052 0.5 45.71 0.718656 46.0714 1.07635C46.4317 1.43287 46.6502 2.02678 46.6502 3.01365C46.6502 4.00008 46.4317 4.58521 46.0739 4.93447C45.7133 5.28641 45.1085 5.5 44.0993 5.5C43.0905 5.5 42.4701 5.28657 42.0962 4.9303C41.7277 4.57908 41.5 3.99382 41.5 3.01365C41.5 2.03297 41.7277 1.43898 42.0987 1.08055C42.4734 0.718531 43.0938 0.5 44.0993 0.5ZM47.1502 3.01365C47.1502 0.918004 46.2283 0 44.0993 0C41.9703 0 41 0.918004 41 3.01365C41 5.10816 41.9703 6 44.0993 6C46.2283 6 47.1502 5.10816 47.1502 3.01365ZM42.7675 1.363C43.2445 1.318 43.717 1.3 44.194 1.3C45.157 1.3 45.4855 1.633 45.4855 2.5105C45.4855 3.154 45.319 3.4555 44.842 3.577L45.607 4.7965C45.643 4.846 45.6205 4.8865 45.553 4.8865H44.725C44.6215 4.8865 44.59 4.855 44.545 4.7875L43.816 3.6355H43.645V4.8145C43.645 4.873 43.6315 4.8865 43.5775 4.8865H42.7675C42.7135 4.8865 42.7 4.873 42.7 4.8145V1.4215C42.7 1.381 42.7135 1.3675 42.7675 1.363ZM44.527 2.542C44.527 2.2495 44.428 2.1235 44.0905 2.1235H43.645V2.9425H44.0905C44.428 2.9425 44.527 2.839 44.527 2.542Z" fill="currentColor"></path></svg>