<?xml version="1.0" encoding="UTF-8" standalone="no"?><!DOCTYPE svg PUBLIC "-//W3C//DTD SVG 1.1//EN" "http://www.w3.org/Graphics/SVG/1.1/DTD/svg11.dtd"><svg width="100%" height="100%" viewBox="0 0 2763 1189" version="1.1" xmlns="http://www.w3.org/2000/svg" xmlns:xlink="http://www.w3.org/1999/xlink" xml:space="preserve" xmlns:serif="http://www.serif.com/" style="fill-rule:evenodd;clip-rule:evenodd;stroke-linejoin:round;stroke-miterlimit:2;"><g><g><path d="M2437.31,593.737c-171.792,-136.673 -343.584,-135.941 -515.375,0c-74.996,70.738 -117.478,169.272 -117.41,272.369l-0,321.369l205.305,-0l0,-321.369c0.764,-93.231 76.561,-168.4 169.792,-168.4c93.231,-0 169.028,75.169 169.792,168.4l0,321.369l205.306,-0l-0,-321.369c0.068,-103.097 -42.414,-201.631 -117.41,-272.369Z" style="fill:#ffc843;fill-rule:nonzero;"/><path d="M1921.94,593.737c171.791,136.674 343.583,135.942 515.375,0c74.996,-70.737 117.478,-169.271 117.41,-272.368l-0,-321.369l-205.306,0l0,321.369c-0.764,93.231 -76.561,168.4 -169.792,168.4c-93.231,0 -169.028,-75.169 -169.792,-168.4l0,-321.369l-205.305,0l-0,321.369c-0.068,103.097 42.414,201.631 117.41,272.368Z" style="fill:#05ce7c;fill-rule:nonzero;"/><path d="M1921.94,593.737c171.791,-135.941 343.583,-136.673 515.375,0c-171.792,135.942 -343.584,136.674 -515.375,0Z" style="fill:#05a221;fill-rule:nonzero;"/></g><path d="M750.195,982.17l0,-982.17l-205.305,0l-0,812.394c-0.764,93.232 -76.561,168.4 -169.792,168.4c-93.232,0 -169.029,-75.168 -169.792,-168.4l-0,-812.394l-205.306,0l0,812.394c-0.068,139.898 77.783,268.201 201.893,332.777c124.111,64.559 273.854,54.662 388.39,-25.684c36.362,43.135 89.921,68.005 146.348,67.988l102.653,-0l0,-205.305l-89.089,-0Z" style="fill:#b3b3b3;fill-rule:nonzero;"/><path d="M1288.65,206.647c-0,-0 379.681,-0 379.681,-0l-0,-205.306l-379.681,0c-192.2,0.221 -347.953,155.974 -348.174,348.191l-0,491.093c0.204,192.217 155.957,347.97 348.174,348.191l379.681,0l-0,-205.305l-379.681,-0c-78.87,-0.102 -142.784,-64.016 -142.869,-142.886l0,-173.577c44.901,20.286 93.622,30.743 142.886,30.692l379.664,-0l-0,-205.306l-379.681,0c-78.904,0 -142.886,-63.982 -142.886,-142.902c0,-78.904 63.982,-142.885 142.886,-142.885Z" style="fill:#b3b3b3;fill-rule:nonzero;"/><path d="M940.477,349.532c0.221,-192.217 155.974,-347.97 348.174,-348.191l379.681,0l-0,205.306l-379.681,-0l-0,-0c-78.904,-0 -142.886,63.981 -142.886,142.885l0,0.017c0,78.904 63.982,142.885 142.886,142.885l-0,0l379.681,0l-0,205.306l-379.681,-0c-192.2,-0.221 -347.953,-155.974 -348.174,-348.191l-0,-0.017Z" style="fill:#999;fill-rule:nonzero;"/><path d="M749.438,778.335l0,-778.335l-205.305,0l-0,981.92c-0,49.546 15.053,101.855 46.15,137.567c41.02,47.107 93.032,69.39 155.531,67.988l93.47,-0l0,-205.305l-89.089,-0l-0.757,-203.835Z" style="fill:#999;fill-rule:nonzero;"/></g><g><path d="M2656.77,10.991c-1.051,-3.536 -1.911,-7.263 -2.294,-10.322l-22.365,0c1.625,3.728 2.581,6.117 4.492,11.661l20.358,57.537c1.625,4.588 2.581,7.838 3.059,10.323l24.85,-0c0.478,-2.39 1.434,-5.639 3.059,-10.323l20.262,-57.537c2.39,-6.595 3.25,-8.794 4.588,-11.661l-22.461,0c-0.287,3.25 -0.956,5.926 -2.198,10.322l-13.859,45.973c-0.478,1.816 -0.669,2.39 -1.816,6.595c-1.051,-4.014 -1.051,-4.014 -1.816,-6.595l-13.859,-45.973Z" style="fill:#808080;fill-rule:nonzero;"/><path d="M2727.11,17.682c4.205,-0.478 7.933,-0.669 11.66,-0.669l3.823,-0l0,48.745c0,5.543 -0.191,10.035 -0.764,14.432l20.836,-0c-0.574,-4.683 -0.765,-8.698 -0.765,-14.432l0,-50.083c0,-6.308 0.191,-10.323 0.669,-15.388c-3.823,0.382 -5.066,0.382 -11.852,0.382l-12.138,0c-5.544,0 -8.029,-0.096 -11.469,-0.669l-0,17.682Z" style="fill:#808080;fill-rule:nonzero;"/></g></svg>